<?xml version="1.0" standalone="no"?>
<!DOCTYPE svg PUBLIC "-//W3C//DTD SVG 20010904//EN"
 "http://www.w3.org/TR/2001/REC-SVG-20010904/DTD/svg10.dtd">
<svg version="1.0" xmlns="http://www.w3.org/2000/svg"
 width="2821.000000pt" height="2821.000000pt" viewBox="0 0 2821.000000 2821.000000"
 preserveAspectRatio="xMidYMid meet">
<metadata>
Created by potrace 1.11, written by Peter Selinger 2001-2013
</metadata>
<g transform="translate(0.000000,2821.000000) scale(0.100000,-0.100000)"
fill="#000000" stroke="none">
<path d="M5305 18828 c-536 -61 -1032 -365 -1337 -818 -117 -174 -203 -368
-274 -617 -3 -10 -68 -13 -284 -13 l-280 0 0 213 c0 194 -2 215 -20 245 -11
18 -32 37 -46 42 -16 6 -333 10 -833 10 l-808 0 -28 -22 c-49 -38 -55 -69 -55
-286 l0 -200 -242 -5 c-221 -4 -252 -7 -343 -31 -205 -54 -402 -179 -530 -339
-79 -98 -165 -266 -197 -387 l-23 -85 -2 -3115 c-3 -3425 -7 -3194 57 -3372
108 -300 360 -531 681 -625 l94 -28 5923 -3 c4209 -1 5922 1 5922 9 0 17 -20
50 -72 117 -26 35 -48 70 -48 78 0 12 -780 14 -5837 16 l-5838 3 -76 22 c-284
81 -501 304 -566 582 -17 72 -18 229 -18 3171 0 2973 1 3098 18 3165 27 102
97 240 161 317 96 115 241 210 391 255 56 17 157 18 1615 23 855 3 1561 9
1568 13 6 5 12 16 12 25 0 9 18 71 40 137 193 576 629 981 1191 1107 l104 23
1530 0 c1417 0 1539 -1 1647 -18 393 -60 701 -203 932 -433 205 -205 317 -427
391 -776 l17 -78 1482 0 c1600 0 1540 2 1676 -53 178 -72 339 -223 416 -391
14 -31 28 -56 30 -56 12 0 53 27 102 67 30 23 60 43 68 43 20 0 17 16 -15 92
-109 254 -335 433 -636 501 -89 20 -111 20 -1467 17 l-1377 -3 -11 44 c-23 93
-73 228 -120 324 -237 490 -730 888 -1282 1034 -260 70 -124 65 -1803 67 -874
1 -1554 -2 -1600 -8z"/>
<path d="M6605 17193 c-626 -52 -1165 -234 -1675 -568 -606 -396 -1072 -969
-1343 -1650 -316 -795 -326 -1703 -27 -2513 106 -287 303 -645 492 -896 261
-345 639 -685 990 -890 374 -219 874 -363 1413 -407 212 -17 709 -7 912 20
782 102 1457 366 1956 764 338 270 660 700 952 1272 208 408 358 789 655 1655
227 662 345 979 492 1315 69 156 274 573 300 607 12 16 18 16 98 -7 393 -116
1037 -185 1720 -185 621 0 2198 64 2605 106 l60 7 -22 -24 c-63 -70 -59 -181
22 -524 17 -72 29 -164 35 -265 14 -224 27 -341 70 -655 44 -320 83 -636 78
-639 -2 -1 -64 -16 -138 -35 -143 -35 -410 -120 -462 -147 -17 -9 -26 -19 -22
-24 13 -13 210 -29 441 -36 l202 -7 5 -36 c28 -182 56 -691 56 -1025 0 -461
-38 -692 -136 -823 -50 -66 -23 -71 45 -8 114 106 189 333 250 750 35 244 70
756 71 1043 0 94 2 112 15 112 9 0 107 7 218 15 337 26 485 47 907 126 273 52
710 127 710 123 0 -2 -7 -77 -15 -166 -21 -242 -44 -618 -55 -928 -19 -529
-10 -849 27 -911 22 -37 96 -72 149 -71 103 1 163 50 192 153 52 186 366 523
643 691 33 20 102 51 153 68 253 84 458 57 553 -73 34 -45 35 -51 25 -86 -42
-138 -427 -351 -826 -457 -72 -19 -142 -40 -156 -45 -24 -10 -24 -11 -5 -25
22 -16 65 -17 232 -4 324 25 551 80 768 186 298 145 398 332 295 550 -90 189
-329 322 -609 340 -228 15 -481 -49 -689 -175 -105 -63 -274 -203 -371 -308
l-79 -85 -8 108 c-5 60 -9 372 -9 693 l0 585 305 52 c168 29 523 93 790 143
750 141 705 130 684 151 -13 13 -550 -22 -1392 -91 -206 -17 -375 -29 -377
-27 -6 6 15 259 35 424 55 451 133 735 236 861 41 50 69 70 122 88 20 7 37 19
37 26 0 25 -36 21 -101 -11 -119 -58 -229 -221 -313 -464 -74 -213 -115 -386
-176 -739 -18 -110 -35 -200 -37 -202 -3 -4 -619 -56 -943 -80 -338 -25 -562
-54 -814 -106 -51 -10 -100 -19 -108 -19 -14 0 -15 34 -9 288 7 286 -4 652
-24 822 -33 273 -102 618 -166 834 -19 65 -34 119 -32 121 2 1 107 10 233 19
241 18 1349 111 1735 146 384 35 900 87 1855 185 1050 108 1978 190 4650 410
900 74 1755 140 2715 210 272 20 499 41 505 46 29 28 -20 30 -456 14 -2586
-91 -4745 -199 -7214 -360 -1389 -91 -1992 -141 -2720 -226 -392 -45 -1261
-163 -1366 -185 -25 -5 -28 0 -52 58 -30 75 -53 87 -62 31 -3 -21 -9 -54 -13
-73 l-8 -35 -119 -7 c-115 -6 -359 -14 -1280 -40 -231 -7 -897 -12 -1480 -13
-1048 0 -1232 4 -1460 36 -116 16 -114 11 -43 92 94 108 212 223 246 241 24
13 47 15 101 10 69 -7 70 -6 102 25 28 29 31 37 27 76 -9 78 -72 135 -150 135
-56 0 -141 -33 -209 -82 -77 -55 -216 -197 -323 -330 -71 -89 -81 -97 -105
-92 -39 10 -453 123 -706 194 -1130 317 -1839 401 -2512 299 -881 -133 -1547
-616 -1819 -1319 -72 -188 -107 -378 -107 -590 0 -233 43 -423 138 -615 178
-360 509 -603 914 -670 147 -25 376 -16 517 19 532 133 905 529 974 1037 17
125 -10 179 -83 165 -51 -10 -67 -32 -67 -93 0 -143 -134 -393 -310 -577 -216
-226 -469 -348 -755 -362 -196 -10 -421 40 -567 127 -396 234 -478 768 -203
1321 100 201 221 363 401 539 364 353 826 567 1390 644 408 56 1237 12 1894
-100 242 -42 791 -162 805 -177 2 -2 -22 -55 -55 -118 -81 -159 -172 -375
-430 -1020 -457 -1143 -720 -1742 -976 -2224 -310 -583 -511 -866 -873 -1226
-367 -367 -738 -618 -1182 -800 -305 -125 -598 -197 -904 -221 -655 -52 -1368
71 -1866 322 -428 214 -876 620 -1178 1064 -306 450 -492 946 -568 1511 -24
181 -24 637 0 819 56 417 159 757 343 1125 228 456 553 851 961 1168 559 435
1247 686 1946 709 l177 6 0 49 0 48 -122 -2 c-68 -1 -141 -3 -163 -5z"/>
<path d="M5204 16361 c-375 -185 -682 -458 -914 -811 -79 -120 -200 -363 -200
-402 0 -98 123 -154 188 -85 12 12 46 72 76 133 107 219 213 370 381 543 182
187 349 309 575 421 69 33 135 71 147 82 68 64 12 188 -85 188 -16 0 -92 -31
-168 -69z"/>
<path d="M5562 15370 c-267 -96 -522 -434 -463 -613 36 -107 178 -111 351 -10
84 49 234 199 283 283 97 167 98 306 2 346 -47 19 -110 17 -173 -6z"/>
<path d="M12458 15295 c-191 -52 -319 -206 -449 -539 -156 -399 -273 -1067
-351 -2006 -19 -226 -23 -344 -23 -660 1 -413 2 -428 54 -504 73 -108 266
-115 358 -13 17 19 73 63 123 98 181 123 478 392 692 625 77 85 143 154 147
154 4 0 13 -21 20 -47 66 -240 116 -356 198 -458 96 -118 231 -204 389 -246
166 -45 599 -31 551 17 -4 4 -55 11 -114 15 -273 22 -439 84 -557 210 -106
112 -154 243 -176 479 -12 126 -32 225 -54 269 -21 39 -77 87 -122 101 -60 20
-164 8 -237 -28 -67 -33 -94 -56 -394 -326 -182 -164 -438 -376 -455 -376 -4
0 -8 129 -8 288 l0 287 53 42 c200 156 485 485 754 868 346 494 428 953 249
1392 -41 100 -97 177 -175 238 -139 110 -331 159 -473 120z m192 -196 c100
-22 209 -130 276 -274 127 -273 103 -670 -60 -1000 -166 -336 -464 -762 -720
-1030 l-95 -100 0 90 c-1 156 18 593 34 780 47 557 111 909 220 1210 51 142
95 223 147 271 71 67 102 75 198 53z"/>
<path d="M22031 15249 c-239 -47 -519 -244 -745 -523 -271 -335 -471 -810
-532 -1262 -24 -187 -25 -552 -1 -698 58 -343 172 -592 356 -777 247 -246 655
-353 1178 -308 160 14 205 21 210 36 3 8 -78 12 -294 16 -223 3 -321 9 -388
21 -183 35 -352 106 -473 200 -266 205 -382 513 -382 1015 0 288 38 518 126
773 90 257 257 561 414 753 79 96 242 252 320 307 214 150 399 177 446 65 32
-78 29 -189 -10 -442 -46 -294 -83 -446 -153 -620 -152 -384 -373 -727 -743
-1159 -60 -71 -110 -133 -110 -137 0 -24 49 -1 171 82 267 182 540 423 726
644 217 257 390 576 477 877 32 110 83 413 92 543 8 130 -14 264 -57 346 -64
120 -195 212 -345 244 -75 16 -213 18 -283 4z"/>
<path d="M5968 14756 c-154 -55 -311 -234 -325 -371 -5 -50 -4 -56 25 -84 38
-38 83 -40 163 -7 153 62 308 253 309 379 0 29 -7 46 -29 68 -33 33 -79 38
-143 15z"/>
<path d="M15106 12814 c-182 -33 -452 -148 -594 -253 -102 -76 -184 -169 -230
-260 -34 -69 -37 -82 -37 -160 0 -77 3 -93 33 -153 80 -157 254 -263 512 -309
113 -21 479 -18 600 4 461 84 813 247 916 424 37 62 21 76 -45 39 -105 -57
-293 -101 -551 -128 -145 -15 -759 -17 -804 -2 -26 9 -17 14 115 64 176 66
393 174 474 235 79 59 171 166 186 213 8 29 8 53 -1 96 -20 98 -103 168 -228
195 -72 15 -249 12 -346 -5z m346 -188 c58 -44 35 -112 -76 -222 -93 -91 -221
-175 -429 -280 l-168 -85 -56 18 c-76 24 -113 60 -113 109 0 58 34 116 110
187 123 116 241 184 440 253 80 28 109 33 185 33 59 0 96 -4 107 -13z"/>
<path d="M23662 12815 c-137 -25 -347 -102 -482 -177 -156 -88 -286 -214 -348
-337 -34 -69 -37 -82 -37 -160 0 -77 3 -93 33 -153 80 -157 254 -263 512 -309
113 -21 479 -18 600 4 461 84 813 247 916 424 37 62 21 76 -45 39 -105 -57
-293 -101 -551 -128 -145 -15 -759 -17 -804 -2 -26 9 -17 14 115 64 176 66
393 174 474 235 79 59 171 166 186 213 8 29 8 53 -1 96 -20 98 -103 168 -228
195 -70 15 -248 13 -340 -4z m340 -189 c58 -44 35 -112 -76 -222 -93 -91 -221
-175 -429 -280 l-168 -85 -56 18 c-76 24 -113 60 -113 109 0 58 34 116 110
187 123 116 241 184 440 253 80 28 109 33 185 33 59 0 96 -4 107 -13z"/>
<path d="M8870 12740 c-314 -84 -687 -409 -855 -745 -167 -335 -106 -576 151
-593 317 -21 814 352 1019 763 138 277 124 483 -40 568 -58 30 -178 33 -275 7z"/>
<path d="M25190 12578 c-13 -34 -40 -64 -80 -91 -165 -111 -160 -106 -160
-146 0 -24 7 -44 18 -55 24 -21 171 -80 264 -106 152 -41 365 -44 493 -5 34
10 47 10 50 2 1 -7 10 -59 19 -117 20 -132 57 -211 127 -274 134 -120 300
-143 563 -77 126 32 253 82 246 96 -6 11 -32 11 -200 -2 -249 -18 -380 15
-428 107 -22 42 -23 52 -18 175 3 72 10 154 16 182 13 69 -3 157 -37 202 -35
46 -114 81 -184 81 -30 0 -95 -9 -145 -20 -68 -16 -393 -60 -436 -60 -5 0 -8
10 -8 23 0 23 -34 87 -54 99 -20 14 -36 8 -46 -14z"/>
</g>
</svg>
